ply
format ascii 1.0
element vertex 100
property float x
property float y
property float z
end_header
-0.056484723084200 0.689974474411781 -3.196976459869600
-0.852056458270458 0.298547144658587 -3.095998805771702
1.869458576549590 0.524340235674741 -1.125089941482847
0.786401649351434 -1.759086996253551 -2.248774728003570
0.538054370596174 0.440486190626148 -2.091856600096640
1.260362162274085 -1.442149652634848 -0.465162094925310
0.829316235096044 0.618630247635234 -1.118459478742269
1.324588830019652 0.276621963067120 -0.807631978167601
-0.211526479260246 0.393398646274252 -3.016259313624324
2.075804164579458 0.125497150795107 -0.663961627438748
-0.846165374156747 0.915124854802720 1.499855885459220
-0.020303913642513 1.182834277208267 2.809216934860183
2.125816064920922 -2.585007283991277 -1.239454220983750
2.644512142180814 0.893200955821278 -1.895212282867399
-0.439152258171830 -1.163443403043798 -1.044902455855071
-0.950103903054223 -2.323148330390183 -1.080884187478326
1.419272975819366 -1.755626164364180 -1.242386919222624
0.612922576998400 1.714098215546397 0.829330023751775
0.132970279178807 -0.054594800121769 -0.395951333180606
-0.054465287804507 -0.007536904731090 -0.019694322433725
0.140537321942321 -2.277863336509744 -2.179465177774890
1.513192480193580 4.712842026793954 0.584916494743727
0.496834428031143 0.211396392169958 -2.081106864637031
-0.117646849391937 -4.087792984814953 -0.599179657907889
-2.029509208208166 1.757382463627550 3.525338687543385
1.420350563551902 -4.131813612813759 -1.031886740843294
2.746294800710289 0.033778832365713 3.040237512873545
0.413970476754303 -2.042321208365967 -0.485022070392684
2.860872596948760 1.315378873076045 1.746743574302771
-0.664568069460812 0.112161844634793 0.397539736127183
0.786393217773921 4.078070202084509 -0.484390902436317
1.509576669365376 -1.132119600049569 -0.414623122658485
0.990589555311515 3.100460555551364 -1.199246650741055
0.445958887129414 0.236659943021767 0.209671506572552
-0.225882766158067 0.102560484999117 -0.042557954502981
-3.302711395125990 2.237952711689273 -1.653353126569266
-1.068396843929832 0.215778823300262 0.000301054796333
0.979024387578738 -1.922220142849887 2.081862557637179
-0.054692446911342 -0.080893330289224 -0.009468996306694
-0.134576862172154 2.565294017394419 0.405611746964578
0.176155633630842 -0.356896026158903 0.365081599862213
0.002189561020007 -0.021079398021331 0.008671141163101
2.914016318875934 1.043706979036176 3.843415671114912
0.014750930868791 -1.206537334603114 -2.234236098674556
0.506821326804571 2.418536144504878 -2.199216480467085
0.192274002838837 -2.082602177975507 2.083880619981301
-0.267290520208664 2.134285881844344 0.692641794391820
2.785777889961238 0.873973883526645 1.742939852348762
-2.461332440857602 -3.250509097306449 1.470837299934757
-0.424541452995638 -1.401280022821960 -0.330069266415603
-1.079180771602880 1.567675127783719 -0.428596690763459
-0.117561468659458 -0.350360795710356 -0.227701904635116
-0.786197332856862 -1.653342133830210 -1.077483314123684
-1.171538283217196 -0.018896093626800 0.332175684813754
0.009560069329531 -0.013612505956495 -0.003362517422991
-0.311295676013379 -1.195870015255234 -0.519238328090991
-2.181880617791655 -3.801916426498611 1.040414432069558
1.835242220455989 -0.406267181106583 -0.037973046835374
0.077811211503449 -0.941316606812520 -1.966570981343292
-0.804212159966515 -1.248819439616721 1.558533567772414
0.652939683284380 1.927821740008256 -2.723689945958585
1.027573432587690 0.170115650343435 0.323170166228378
2.349486439098961 -2.761768667618112 -2.587740597975158
2.847482586388791 -0.652369791690693 -0.852750702554988
1.213320139939056 1.095226754525226 0.305656864178014
0.068906278740732 -0.008669454337766 0.150660511730817
0.171137093522499 1.562813835679576 -0.599737662594862
-2.574260431061813 -0.768513454733109 -0.552896858765389
-0.993887585194648 0.092866386709327 -0.679441376228112
-1.066183328027059 -0.359318548617621 4.541001930466104
1.093929133212861 0.750885465186402 -1.219086172935808
-1.769431516793823 1.529173199702925 1.379729897449835
-1.313555488478696 -3.573928483161238 0.020542605385231
1.713961444395294 0.726041787593775 2.636867355425326
-0.445501011545217 0.005174293130676 -0.117396638692543
-1.795478598928129 -0.432310925131421 1.115531886159165
0.296826293649324 -1.016370308576359 -2.441724235185677
-0.811966790444653 1.000969969989000 1.481147681898879
1.290046455601569 1.031341480161674 -1.530327841201880
0.949010271816940 1.900779090866762 2.459724137134661
0.470179019634356 -0.216640111278314 0.262843065218562
-1.929054145217921 1.984555469169267 -1.090940007840567
1.290555801735647 -0.760669726474589 -0.820892590903980
0.306842499180519 -0.142454226189959 -0.680259032271424
-1.171736158826213 -0.699840770031949 -1.693743760543147
-1.257873127643787 0.630688916033093 -2.497133028380017
1.759767286670009 -2.232686303097291 -0.150164877936832
-0.918727848529102 -0.020393750693864 0.616024608669768
1.494578982445681 1.958762373829693 0.574778098172654
-3.176555431626944 1.349848975737189 -3.316647861691466
0.335591902711695 0.168803773930893 -0.250891785575060
-1.539330579133237 0.470337541377419 3.105870115020779
1.973604962482591 -3.453369057840066 0.779149355474267
-0.179900119842292 1.340003303979703 -0.864352794366684
0.071702658197118 -2.672220387744077 0.773275151267221
0.242243120366231 2.385497725621464 3.132871672657419
-0.437246916909027 -0.043454166536156 0.329646369349724
-4.485631153412456 -1.848589785553886 0.336276521509600
3.059969288562168 -1.698358568151444 -2.414509506652294
0.435886664271721 0.026699609580535 -0.076359193775729
