ply
format ascii 1.0
element vertex 100
property float x
property float y
property float z
end_header
0.141211565464683 0.882916635201063 0.234112972900461
0.196411538124059 0.897168536654751 0.010477432134143
0.150691535877077 0.232327300940741 0.571284049186464
0.732485351393913 0.483942119057693 0.239845371133683
0.166606124089249 0.559371973445319 0.298643591116763
0.572944399514263 0.027534077687160 0.267390216446438
0.079732344514108 0.308216473798176 0.321954946174901
0.169186846453985 0.182164923392885 0.404420855083018
0.197364576343355 0.836602741087951 0.167954639219273
0.232504193172732 0.087358053379661 0.570719083960820
0.737336670967370 0.055745432133942 0.650729870879194
0.329071867505413 0.241890004802148 0.256441282577924
0.892309863275334 0.078020624030694 0.341194232969976
0.147833749163708 0.974515241370453 0.000000000000000
0.332284115182801 0.483612588372829 0.231401798778522
0.246710418346120 0.314887816499916 0.229373977388763
0.067763806075401 0.564577766510572 0.340861977493295
0.729187012822883 0.629757492776608 0.399514046846776
0.390266557551387 0.074283086602077 0.668469831581056
0.101127134251132 0.817380418470896 0.325172906519270
0.796636033408679 0.464928308785486 0.632091342738822
0.911134704537105 0.399665197625956 0.483692615821692
0.078419483441609 0.471909688948791 0.323319678514153
0.489601918814684 0.408767179906365 0.158264114434141
0.621111081594273 0.024422052237529 0.515301854567225
0.143507055369223 0.904661150401843 0.154305975354452
0.295247817748685 0.747411873718189 0.411343113527781
0.401143525596481 0.416348540436136 0.205770452613102
0.327844420826520 0.001913492883445 0.404760439310104
0.358154904778110 0.860391889957197 0.278933706153339
0.418303738294106 0.488892345442166 0.225491844341050
0.186595196859757 0.049785717360389 0.460579396975884
0.818016679283810 0.568095366260377 0.403631648886659
0.018027172551056 0.698199252111670 0.630010378512795
0.246672759844040 0.251749366457715 0.632080568849338
0.099737553063285 0.828558704643742 0.251446707857668
0.297410838923687 0.762733246564269 0.350070741859462
0.868647144746403 0.320731874822638 0.269836390470410
0.738161249346238 0.408802859019447 0.686253514229777
0.493748375460327 0.486000232615791 0.218569645403235
0.477355589416192 0.994181448234242 0.241771642351167
0.814386755472246 0.228433066059026 0.646964772337944
0.901333196162511 0.143250787132849 0.324366884912260
0.099412031267531 0.858730606309901 0.164934091608027
0.574488911738443 0.632541966930373 0.345862474720822
0.412318441796918 0.057661631017537 0.174577537001671
0.082138179091408 0.806787229663695 0.408881001037651
0.860439645848723 0.388673876018991 0.611369144372274
0.243888285690275 0.486397062526593 0.240190411208293
0.152737522545617 0.767844880846545 0.171832738322319
0.086014223638785 0.511807155596462 0.646099829456846
1.000000000000000 0.229967869254892 0.480335096025171
0.335553539641123 0.381099931934074 0.213115025602019
0.731275380965985 0.142462514255986 0.181587843805462
0.578533204350667 0.060640486182036 0.181199758284031
0.541701310150061 0.897968911365617 0.231185907572155
0.415706228706222 0.550756219302871 0.266125092473797
0.316400470583448 0.476779186328806 0.635217474467009
0.359847106982668 0.900968662864603 0.277339690412536
0.826537598143243 0.299155482408919 0.235848909579656
0.663851657096864 0.432604134778251 0.693428598903779
0.322896248997715 0.144926177058701 0.627907891563358
0.184407997072308 0.250467423942479 0.271862201151724
0.154328851077938 0.917184519093412 0.071123981760958
0.483788816632560 0.577228968653644 0.585685319342845
0.158024044615328 0.395893334084332 0.251497144693787
0.044934385259154 0.309570375872942 0.400732022525146
0.963429134591587 0.141531675260138 0.348347321996930
0.933189933699489 0.250115694034167 0.401533399458289
0.734107611011276 0.304307456137867 0.714014269540566
0.995041079337268 0.135810714888658 0.399506649193589
0.000000000000000 0.654992647947927 0.563655646848540
0.019400567849120 0.482422098640420 0.481382969527482
0.648265891750072 0.397790039744628 0.725455513783488
0.781001240600846 0.326109799564063 0.199666117164896
0.652591188697258 0.632427613368503 0.552698638826803
0.760139821032166 0.118082179520760 0.205978275930134
0.497163059510005 0.391088429930106 0.725683519351634
0.240624248176695 0.001517339472680 0.565434616446778
0.012605500807215 0.731196017489380 0.560305518441316
0.227697936018430 0.746288683211719 0.577032583198355
0.726859890277707 0.376006487986136 0.184044102691102
0.380256561887501 0.155326287744129 0.287722982555369
0.567012042276943 0.004103398671043 0.229061897899307
0.573706163611885 0.631580134210592 0.549743999858085
0.355227839449804 0.053079320431158 0.187450718851445
0.573489122981844 0.033078145826649 0.325212657160355
0.814026256119005 0.012673426422077 0.397925681134063
0.177822093819731 0.007057373667502 0.563100089984527
0.573207714626026 0.403554020507372 0.730008885201602
0.062780656689110 0.491898761719298 0.573645472789089
0.430805646901156 0.007606190586697 0.707560860073083
0.158771952989962 0.000000000000000 0.404753311004155
0.651099067642637 0.004240602900842 0.244432367109210
0.085542778279418 0.245480917111557 0.482377048749044
0.415743223236042 0.971919084782643 0.267135307474028
0.575597995966356 0.151154938402667 0.727436280837315
0.414570911310194 0.619056765519024 0.463462076385072
0.491954610555716 0.008291560291212 0.233615269317421
0.406398389970000 0.004907807326576 0.656237633516678
