ply
format ascii 1.0
element vertex 50
property float x
property float y
property float z
end_header
-1.340847871621586 1.317289208235246 -0.913942242076504
-1.738799258527889 2.186339445115862 -0.547036213592984
-1.850116987164569 2.007539271347605 0.466357451139286
-1.276533966687001 0.199301812689300 1.859720445896834
-0.796397867801410 0.973142563582811 1.555249843851127
-1.006999622726837 0.734090070123645 0.886591748821806
-0.686505442115570 1.765674795764227 -0.499327060762034
-0.872106312373344 0.933784523249285 -0.155897451123091
-1.913845854729948 1.086462234414522 1.553577220597776
-1.617589204149707 1.516929498927609 0.993203636192660
-2.012594579385268 1.806454625716384 0.748908117712813
-0.943783940979965 0.804221882328801 -0.706321723357327
-2.495892326399822 0.504613915159207 1.707480258473093
-1.255557539375804 0.981143433624362 1.357457342048187
-1.410275990072823 0.903967231649412 1.052856130720180
-2.305522490215007 1.783747424690204 -0.693985049736579
-0.776284845098643 1.094794550464830 1.740565849630387
-1.276651660565869 0.210672963173431 2.194993720510774
-1.795020939082381 0.728720985725685 -0.821753830650391
-0.921237161786580 2.109931433463183 1.373747305362046
-2.555039741056500 1.002335183773129 0.066934559042018
-1.758176408557958 1.591247516630953 -1.113875476894193
-1.649390659018376 0.690802964007383 0.515907717530556
-1.543584932912181 0.815657339432583 0.804536581703265
-2.057493781664135 0.721471772971200 0.283103804687666
-2.054597412324570 -0.997985103177307 0.622398461971304
-0.821125391774817 -0.459748467013530 0.183140691448174
0.609357318930069 -0.400452266480741 1.130564052093794
0.053500890165247 -0.408537085875269 -0.194362254154471
0.800486332428991 1.879134208767711 0.599334987346727
2.258356321825605 2.212381255232502 0.332888024452912
0.371617253816743 -0.888506806149166 0.683797053052193
-1.977623364832403 0.579439412706968 -1.006967108179659
1.614702034001720 2.839172316449216 -0.536894409441619
-0.554997354911350 0.534724565220508 1.024742473882040
1.791304791682357 3.917805047679209 0.601635891696985
-1.434217787031743 -1.737065652247677 -4.124028139133324
1.887459864976206 -0.173910231163663 1.955796900571662
1.408575425370754 0.547099553031681 2.131110265587358
0.431230437744791 -0.180495502174326 -0.286879811641932
-1.683073494091382 -0.667490448242509 -0.259339537873513
2.513747217940892 1.807601313315810 3.488416117085503
1.454750024049740 -1.526346176153763 -2.770133574747314
-4.302052150043212 0.156453291664583 0.083150676482472
-0.455067755560242 -3.335532133085192 1.550394206437351
0.150103973382257 -1.304162746411618 -2.619966814644448
-0.756707457935150 -0.581636372196686 0.750140788752027
-0.538781100372027 3.454969461590723 -1.152310101884427
-0.614762180889865 1.804386216512682 1.121209084119662
-0.846384003210814 -1.019837039277124 -0.264043702786119
