ply
format ascii 1.0
element vertex 50
property float x
property float y
property float z
end_header
0.678537256220603 0.000000000000000 0.332838323599589
0.743838985225984 0.163905109795101 0.640692495261915
0.601927937024671 0.490651289269871 0.598556686753227
0.172973489105479 0.841591912050120 0.000000000000000
0.088075563645444 0.654555653092209 0.261837263006382
0.263784149025397 0.493765442600817 0.166099530155486
0.414798978089339 0.004708528634576 0.496063437420885
0.403786156463826 0.153872805058745 0.214898676062974
0.425875310292515 0.843974188930824 0.301014723196903
0.436886742865298 0.617392884870628 0.439054218175014
0.600473534506925 0.606876572426984 0.534478809666181
0.518460562246360 0.002920123242932 0.159349184036985
0.569114389367017 1.000000000000000 0.102678996550365
0.260290192665215 0.673793107386586 0.260753866183907
0.358335244995719 0.610101181173273 0.228117847182283
0.935761224304904 0.223836535863001 0.498525070369669
0.051429934611114 0.704748301844451 0.307539993336148
0.115651450039863 0.942198017492495 0.010463168315069
0.793791958074067 0.115636273352613 0.130975762727569
0.167736040058634 0.602201844075538 0.651656288470651
0.872918626667230 0.508611226622564 0.242956181122598
0.841090644076485 0.006913984247216 0.423740271936397
0.520302124628178 0.493358038579345 0.143902647570518
0.440180431261774 0.559839542802039 0.192725278758446
0.683365381652270 0.492923007842437 0.149981142323012
0.770381184879472 0.051638472583212 0.587578411383606
0.691695527666921 0.435029965211432 0.124372501859401
0.023032397802889 0.673661919073068 0.343005620467476
0.462365571206521 0.152212835598355 0.099073195722109
0.511529304871197 0.136924432496076 0.074248289677378
0.120703846395051 0.389041876184264 0.199697963345162
0.354535414079449 0.490906772079649 0.157076732353255
0.074053539339800 0.416181342789044 0.508935776220930
0.261896992273831 0.605336730304660 0.228918758267115
0.060214509869914 0.310253519100787 0.422936524868906
0.767066081920054 0.306823793567832 0.652549114975342
0.260876424364252 0.394574164534942 0.148037381672643
0.861959000616688 0.301534537998746 0.161642342895692
0.266681481514255 0.317686083034383 0.154994876710509
0.052207444015902 0.497162705456976 0.444313081784801
0.747870132006826 0.630180967333235 0.275879309606838
0.416655730020007 0.218363616654989 0.159477607106641
0.531671238279289 0.156029232254607 0.645766987844811
0.773837148075130 0.001849163587042 0.328783077396938
0.890432523753959 0.421341467900509 0.211187223626737
0.679964247454702 0.613312002285043 0.225423650793790
0.156076228538685 0.794472053725267 0.026829450613696
0.000000000000000 0.581590359397845 0.418528366025890
0.015340183901321 0.767908529540033 0.425733061003543
0.414062883034506 0.070670089841358 0.605791079163813
