ply
format ascii 1.0
element vertex 10
property float32 x
property float32 y
property float32 z
end_header
0.795764234045939 -0.518702594636198 0.955250464424084
0.946439147587334 -0.896774714878563 1.002166326731055
1.025593151825568 -0.688654428716434 -0.043703897037196
1.624345120584121 -0.764366221567527 1.721713213434990
2.185887633230881 -1.151209640388527 -0.392227576398048
2.631703693155074 -1.015227395436510 0.273335626123240
1.631407990975376 -0.818869864200015 -0.363492115745467
2.063544585039768 -1.461810775067021 0.259943762916496
1.356945214810858 -1.147696316194836 0.204241861922029
2.044066723414055 -1.456528623313073 0.161107844602046
