ply
format ascii 1.0
element vertex 10
property float32 x
property float32 y
property float32 z
end_header
0.000000000000000 0.340289771402993 0.125195115981903
0.039532184359777 0.271274956039425 0.326196107459280
0.413354868026472 0.002609673105362 0.000000000000000
0.094459640962381 0.723568951343191 0.589586978919941
1.000000000000000 0.018579978014921 0.351822421438348
0.975375638408160 0.397059619218748 0.551699488869940
0.766408275513687 0.000000000000000 0.103504312122889
0.732404759121674 0.110086977558022 0.615365861507720
0.461984304567431 0.019855474450542 0.321999512331945
0.756148990762184 0.073487594309140 0.584875880880268
