ply
format ascii 1.0
element vertex 10
property float x
property float y
property float z
end_header
1.062076705231083 2.371695516066595 0.419773628243796
0.094081626757461 1.314590618174933 -0.132409358602485
1.380807879002864 2.002746991281001 0.606206969992887
1.552530031384758 0.266373036696281 0.894491351273646
0.192458624378702 1.280250886890446 -0.548728616886729
0.067346080924756 1.467829124988375 -0.589726518161138
1.333108869420792 0.789274198443778 -0.543097159634405
0.472318448511941 -0.746098950660118 0.249319566059015
-0.111007942753446 0.183235996636640 0.344436591456026
1.928421748681400 1.009816837203765 -0.103813513119092
