ply
format ascii 1.0
element vertex 10
property float x
property float y
property float z
end_header
1.000000000000000 0.694926980704013 0.236067536624111
0.597585336682845 0.169189371233284 0.000000000000000
0.809101819037450 0.812754369015214 0.318109199989962
0.000000000000000 0.825788107039742 0.328774732618165
0.608437208408793 0.030532565661197 0.138651731427826
0.700329933446895 0.000000000000000 0.098386524394480
0.346343402507162 0.265005515083464 0.585044050259045
0.879640259692343 0.107347966640924 0.056707298892979
0.886704491199821 0.772597229454298 0.246658144988834
0.511078666307202 0.282411419011583 0.615623093508297
