ply
format ascii 1.0
element vertex 10
property float x
property float y
property float z
end_header
-0.156170420812575 0.428071102935477 -0.265291263356892
-0.907895781072482 0.599364829221033 -1.119363219790258
-0.425144000736901 1.019833424448011 -0.111414870770722
-0.537976724871501 1.072852032143869 -0.352119825518894
-1.207767177946177 0.889838256128847 0.125906528039588
-0.466053054948166 0.741328373122100 -0.699454260901141
-0.504449679419203 0.469152269287252 0.053685212088281
-1.170060556111593 0.868924175908961 -0.579571244630107
-1.495483507052152 0.575553667501570 0.274530697965636
-0.001451912321452 -0.008870518356035 0.021356654415554
