ply
format ascii 1.0
element vertex 1000
property float x
property float y
property float z
end_header
-0.073517 -0.379788 1.751478
-0.010221 -0.360610 1.705927
-0.022045 -0.370986 1.763587
-0.077770 -0.346553 1.723433
-0.043376 -0.355490 1.673249
-0.089538 -0.311426 1.719564
-0.001489 -0.338358 1.756653
-0.028468 -0.387961 1.750347
-0.040033 -0.348768 1.784592
-0.083788 -0.326371 1.673534
-0.082477 -0.332777 1.756307
-0.073144 -0.370143 1.695514
-0.082665 -0.358688 1.750010
-0.058107 -0.361058 1.686387
-0.082317 -0.333309 1.700425
-0.013497 -0.357281 1.708824
-0.028680 -0.371883 1.767031
-0.008935 -0.312856 1.774440
-0.018260 -0.330646 1.706478
-0.044674 -0.367857 1.766997
-0.076440 -0.308798 1.690437
-0.069942 -0.381241 1.743396
-0.090979 -0.369435 1.717102
-0.088676 -0.371516 1.723377
-0.073167 -0.379755 1.751766
-0.017971 -0.363124 1.686932
-0.066599 -0.309653 1.684589
-0.001269 -0.310359 1.760950
-0.035979 -0.364484 1.678097
-0.057910 -0.302280 1.692848
-0.085436 -0.315720 1.707534
-0.009625 -0.342471 1.714800
-0.091279 -0.346741 1.729442
0.003409 -0.317028 1.734094
-0.038131 -0.338395 1.693283
-0.073154 -0.351855 1.702765
-0.081313 -0.338676 1.758579
-0.092435 -0.301696 1.709074
-0.079469 -0.377695 1.724993
-0.065014 -0.329413 1.777666
-0.071449 -0.309560 1.695658
-0.090816 -0.310816 1.744274
-0.015908 -0.353851 1.766375
-0.011947 -0.360439 1.728450
-0.078890 -0.356298 1.724156
-0.004573 -0.308641 1.765254
-0.087109 -0.377075 1.716411
0.003340 -0.310887 1.757320
-0.002332 -0.301295 1.730289
-0.005934 -0.304282 1.725884
-0.076421 -0.342490 1.763640
-0.084103 -0.376468 1.733221
-0.033636 -0.335359 1.778723
-0.090168 -0.309520 1.751615
-0.022877 -0.374559 1.762490
-0.089704 -0.343198 1.736621
-0.088861 -0.309983 1.754277
0.006616 -0.329663 1.710232
-0.076311 -0.374567 1.720331
-0.001661 -0.341577 1.711496
-0.009771 -0.319433 1.733393
0.005469 -0.351708 1.739110
-0.066935 -0.339767 1.705402
-0.022931 -0.365279 1.684735
-0.064107 -0.325390 1.705727
-0.076274 -0.321739 1.770898
-0.079073 -0.308744 1.701981
-0.041646 -0.363566 1.678187
-0.091457 -0.361123 1.672041
-0.031326 -0.360245 1.683905
0.011975 -0.298710 1.730478
-0.087656 -0.332531 1.714969
-0.065554 -0.328053 1.671800
-0.076621 -0.373259 1.703031
-0.001632 -0.354747 1.702738
-0.011745 -0.349394 1.734839
0.017994 -0.373252 1.725335
-0.069519 -0.326917 1.685097
-0.001949 -0.381038 1.746572
-0.044854 -0.344228 1.677889
-0.087974 -0.324480 1.749848
0.016462 -0.311629 1.748865
-0.060675 -0.384415 1.757228
-0.007737 -0.338612 1.723974
-0.067944 -0.389627 1.750664
-0.073720 -0.374287 1.753567
-0.091381 -0.359820 1.725264
-0.081900 -0.364076 1.748309
-0.083059 -0.315620 1.710836
-0.037497 -0.323885 1.784369
-0.001562 -0.384081 1.740589
-0.025531 -0.351744 1.691867
-0.080675 -0.352384 1.756378
-0.003796 -0.325422 1.764213
0.000580 -0.292713 1.719757
-0.085715 -0.342196 1.697483
-0.060273 -0.317876 1.783766
0.004155 -0.369165 1.722314
0.000814 -0.304479 1.757563
0.002512 -0.373481 1.718443
-0.010274 -0.333217 1.704249
-0.001076 -0.374182 1.707353
-0.006295 -0.359433 1.688989
-0.088444 -0.303502 1.722993
-0.021916 -0.338600 1.700533
-0.000610 -0.349017 1.700945
-0.071979 -0.331763 1.771464
-0.072306 -0.315428 1.692013
-0.083435 -0.348458 1.692788
-0.079020 -0.349059 1.758959
-0.005763 -0.311682 1.768818
-0.010650 -0.374833 1.701379
-0.005011 -0.328005 1.765344
-0.071535 -0.359734 1.678274
0.008565 -0.305067 1.736588
-0.070389 -0.347083 1.765780
-0.043263 -0.393304 1.745757
-0.023573 -0.315161 1.782899
-0.075609 -0.296796 1.708976
-0.089217 -0.375355 1.720533
-0.037164 -0.329024 1.781963
-0.023248 -0.336698 1.775554
-0.072714 -0.311255 1.690539
-0.007472 -0.343113 1.764703
-0.079172 -0.353612 1.691809
-0.077347 -0.346096 1.728329
-0.007154 -0.336464 1.723172
-0.079714 -0.368590 1.751190
-0.006638 -0.372393 1.749907
-0.044497 -0.316082 1.702065
-0.080110 -0.351677 1.729967
-0.028607 -0.363954 1.770975
-0.077467 -0.386610 1.738113
-0.007189 -0.343537 1.727506
-0.103438 -0.333658 1.654804
-0.089921 -0.371708 1.711906
-0.015301 -0.338123 1.773196
-0.011071 -0.364373 1.686782
-0.096821 -0.318103 1.655680
-0.015659 -0.363058 1.689380
-0.093217 -0.327841 1.730613
0.015861 -0.364475 1.719779
-0.058580 -0.370336 1.764903
-0.085901 -0.358904 1.674316
-0.047703 -0.387427 1.763349
-0.005113 -0.361838 1.700658
-0.091095 -0.357545 1.726590
-0.090646 -0.302062 1.728137
-0.073808 -0.328124 1.771686
-0.067488 -0.353130 1.699713
-0.011801 -0.350449 1.705528
-0.014779 -0.296248 1.720443
-0.077450 -0.334364 1.729578
-0.001167 -0.308617 1.764486
-0.077211 -0.385709 1.746548
-0.022884 -0.381546 1.745730
-0.014796 -0.326824 1.699101
-0.033446 -0.364365 1.679724
-0.055326 -0.382098 1.761442
-0.090399 -0.308534 1.721350
-0.008810 -0.357661 1.757799
-0.037885 -0.374509 1.766456
-0.028801 -0.334154 1.677033
-0.043495 -0.367421 1.769290
-0.063852 -0.378315 1.720784
-0.003562 -0.315163 1.763433
-0.089992 -0.347815 1.650775
-0.022115 -0.375750 1.767461
-0.069217 -0.369352 1.701634
-0.085959 -0.354356 1.748295
-0.050829 -0.359661 1.683087
-0.022911 -0.371991 1.764159
-0.077926 -0.321075 1.695494
-0.088707 -0.355211 1.667511
-0.010690 -0.367000 1.734104
-0.012498 -0.344727 1.716300
-0.086525 -0.310439 1.720216
-0.073560 -0.359057 1.670025
-0.017620 -0.351271 1.768948
-0.086027 -0.305843 1.712207
-0.040973 -0.333674 1.679537
-0.014170 -0.318329 1.705400
-0.018387 -0.318924 1.778963
-0.061958 -0.345388 1.773325
-0.093495 -0.340592 1.729351
-0.092035 -0.360920 1.710219
-0.081084 -0.341744 1.702616
-0.001273 -0.353584 1.745248
-0.073400 -0.331602 1.769685
-0.005752 -0.341141 1.723559
-0.066511 -0.362661 1.675964
-0.020895 -0.376653 1.742311
-0.004829 -0.342614 1.706521
-0.029115 -0.337832 1.695638
-0.071864 -0.323925 1.773651
-0.067578 -0.329035 1.708099
-0.071922 -0.360834 1.681378
-0.082617 -0.356724 1.687452
-0.092827 -0.316308 1.683933
-0.054818 -0.393698 1.753354
-0.036800 -0.339830 1.779157
0.004418 -0.356280 1.735259
-0.005704 -0.348662 1.756521
-0.085193 -0.352654 1.661966
-0.039670 -0.338254 1.693618
0.018141 -0.317164 1.750166
-0.073807 -0.295901 1.695499
-0.005978 -0.372980 1.732365
-0.004785 -0.360175 1.752867
-0.092912 -0.339814 1.664478
-0.081183 -0.360891 1.750718
-0.091039 -0.327269 1.743834
-0.000748 -0.312864 1.723625
-0.008799 -0.357911 1.730534
-0.102117 -0.326145 1.655794
-0.045279 -0.375975 1.764784
-0.104483 -0.313917 1.658927
-0.026380 -0.371919 1.741366
-0.102078 -0.327428 1.671226
-0.055737 -0.392281 1.753735
-0.011096 -0.345294 1.710538
0.000030 -0.329482 1.758123
-0.006306 -0.367713 1.725519
-0.015645 -0.369770 1.762094
-0.028295 -0.367467 1.766985
-0.027410 -0.391163 1.753920
-0.000704 -0.365534 1.764917
-0.074845 -0.363173 1.757218
-0.001240 -0.361117 1.719074
-0.014699 -0.365041 1.740848
0.013480 -0.342102 1.773338
-0.000586 -0.353806 1.715112
-0.059451 -0.345696 1.693688
-0.013872 -0.373881 1.725650
-0.041112 -0.358052 1.672917
-0.065852 -0.335245 1.704774
-0.079114 -0.339583 1.762162
-0.007919 -0.384353 1.753808
-0.098231 -0.312778 1.682286
-0.038101 -0.362168 1.683357
-0.091778 -0.349275 1.725100
-0.018912 -0.320902 1.781306
-0.103478 -0.309380 1.669769
-0.009425 -0.355287 1.708274
0.001461 -0.316518 1.743358
-0.057800 -0.350640 1.676287
-0.103993 -0.320663 1.663101
-0.033863 -0.347244 1.690511
0.020734 -0.364205 1.736387
-0.088057 -0.353735 1.678896
-0.000320 -0.348293 1.749943
-0.065912 -0.388622 1.756954
-0.046903 -0.349176 1.773623
-0.097781 -0.345466 1.660709
-0.002921 -0.315924 1.762868
-0.093872 -0.307596 1.746983
-0.040251 -0.344379 1.775152
-0.050847 -0.306585 1.692141
-0.021145 -0.313021 1.711347
-0.033540 -0.308159 1.706113
-0.006781 -0.371700 1.702021
-0.089519 -0.324501 1.735401
-0.091011 -0.315285 1.723855
-0.041937 -0.353153 1.773117
-0.044397 -0.390167 1.760122
-0.044533 -0.378666 1.764731
-0.085018 -0.313756 1.685076
-0.008441 -0.340411 1.698720
-0.000449 -0.379724 1.742615
-0.017165 -0.357528 1.740434
-0.011758 -0.352835 1.693914
-0.063640 -0.347520 1.774549
-0.087600 -0.349054 1.743552
-0.040644 -0.349342 1.687201
-0.049010 -0.347076 1.693838
0.012100 -0.318612 1.741304
0.006608 -0.373505 1.718714
-0.037070 -0.323544 1.784237
-0.090736 -0.363729 1.702571
-0.048240 -0.305520 1.688400
-0.077506 -0.328566 1.696185
-0.069193 -0.313641 1.672688
-0.014416 -0.367590 1.727236
-0.092638 -0.342573 1.732604
-0.080916 -0.343918 1.756589
-0.050904 -0.350985 1.689905
-0.076934 -0.385640 1.748338
-0.077310 -0.380529 1.741253
-0.008888 -0.358704 1.694274
-0.082268 -0.360391 1.672547
-0.080673 -0.368107 1.746397
-0.059759 -0.318241 1.783074
-0.078419 -0.363609 1.688911
0.002409 -0.313279 1.750653
-0.064045 -0.363260 1.671337
-0.087563 -0.374012 1.697555
-0.025173 -0.337405 1.778563
-0.047951 -0.341473 1.669884
-0.092392 -0.329127 1.724988
-0.078688 -0.369250 1.757509
-0.010741 -0.335758 1.769736
-0.003851 -0.365385 1.750375
-0.020060 -0.365298 1.741025
-0.078485 -0.352973 1.724507
-0.033541 -0.387405 1.767086
-0.086035 -0.348266 1.659436
-0.076971 -0.355937 1.674406
-0.004911 -0.349800 1.694973
-0.020673 -0.330924 1.705335
-0.032765 -0.328067 1.784531
-0.079435 -0.381113 1.741278
-0.090296 -0.310977 1.753223
0.001497 -0.343228 1.741467
-0.000585 -0.346356 1.705362
-0.004248 -0.311244 1.767783
-0.023974 -0.391294 1.754848
0.016021 -0.350838 1.714988
0.002646 -0.309463 1.746787
-0.001370 -0.313792 1.743199
-0.033118 -0.362000 1.771052
-0.004928 -0.370361 1.694980
-0.001231 -0.320501 1.716942
-0.031693 -0.350708 1.775161
-0.082044 -0.364853 1.690572
-0.041206 -0.361324 1.684004
-0.085514 -0.331192 1.751999
-0.071035 -0.331544 1.686549
0.003413 -0.307769 1.735153
-0.019478 -0.304915 1.722123
-0.071110 -0.361078 1.681731
-0.022500 -0.378605 1.763754
-0.061104 -0.356976 1.688400
-0.037671 -0.346880 1.689002
-0.037103 -0.314309 1.685811
-0.069108 -0.391796 1.749264
-0.046645 -0.302697 1.692551
-0.011963 -0.366449 1.737621
-0.075239 -0.329752 1.692636
-0.056188 -0.286071 1.704720
-0.092885 -0.345036 1.720284
-0.089152 -0.351196 1.737225
-0.032027 -0.354374 1.671116
0.008060 -0.334136 1.709370
-0.000655 -0.355345 1.706707
-0.003724 -0.357479 1.770696
-0.009142 -0.367461 1.748149
-0.022485 -0.360706 1.766412
-0.007276 -0.355795 1.734035
-0.083453 -0.317857 1.763454
-0.011526 -0.354464 1.710172
-0.040648 -0.341299 1.778364
-0.058017 -0.360637 1.768430
-0.008618 -0.361116 1.694171
-0.019957 -0.363272 1.689312
-0.084503 -0.358995 1.666575
-0.029225 -0.325981 1.700129
-0.011872 -0.347232 1.715699
-0.010364 -0.355156 1.699962
-0.087888 -0.295931 1.698593
-0.026753 -0.375809 1.721881
-0.063331 -0.344472 1.696988
-0.069541 -0.360709 1.762229
-0.022038 -0.349273 1.772833
-0.009318 -0.338511 1.697584
-0.086040 -0.372554 1.753983
-0.071866 -0.368415 1.687885
-0.089105 -0.325818 1.731210
-0.011519 -0.358844 1.695595
-0.024285 -0.389193 1.760643
0.004752 -0.350640 1.768302
-0.029088 -0.319299 1.692861
-0.020088 -0.363456 1.765930
-0.054936 -0.355776 1.670767
-0.090872 -0.310166 1.744423
-0.034469 -0.327198 1.782369
-0.075772 -0.295147 1.703745
-0.089596 -0.313332 1.736113
-0.082442 -0.358830 1.666329
-0.014825 -0.314673 1.707579
-0.011101 -0.355342 1.734903
-0.074441 -0.351446 1.710842
-0.082942 -0.370433 1.741677
-0.004977 -0.316511 1.767725
-0.020916 -0.327153 1.778440
-0.043815 -0.373756 1.767066
-0.014594 -0.377355 1.741120
-0.089810 -0.356606 1.680875
-0.077141 -0.353060 1.697098
0.000863 -0.362629 1.748004
-0.044466 -0.364063 1.769449
0.007184 -0.374441 1.726744
-0.087264 -0.376751 1.734285
-0.015390 -0.379636 1.763444
0.015175 -0.378084 1.722280
-0.061847 -0.364020 1.762460
-0.090337 -0.316633 1.747610
-0.080241 -0.329475 1.695536
-0.056336 -0.364956 1.678319
-0.086100 -0.322746 1.672299
-0.024406 -0.324452 1.701891
-0.075037 -0.314294 1.775262
-0.083236 -0.354300 1.694743
-0.046363 -0.302561 1.706140
-0.028483 -0.391197 1.730250
-0.071582 -0.385526 1.746155
-0.086042 -0.348051 1.703516
-0.022005 -0.326069 1.782261
-0.031950 -0.394815 1.758258
-0.012283 -0.375537 1.745732
-0.072151 -0.387073 1.748273
-0.070465 -0.329717 1.772084
-0.011445 -0.376191 1.742697
-0.102197 -0.336811 1.668260
-0.042999 -0.356086 1.686458
-0.078484 -0.364458 1.736809
-0.090141 -0.332223 1.704066
-0.043376 -0.389973 1.752749
-0.089187 -0.336539 1.742240
0.001306 -0.373340 1.742438
-0.096814 -0.339028 1.671457
-0.090046 -0.356766 1.712545
-0.081510 -0.366528 1.696561
-0.012737 -0.330619 1.773433
-0.008843 -0.380291 1.757322
0.002471 -0.314462 1.731855
-0.080197 -0.359806 1.677546
-0.032992 -0.388613 1.748202
-0.085989 -0.350495 1.704906
-0.054426 -0.342415 1.777547
0.013696 -0.308575 1.730211
-0.013282 -0.343310 1.713587
-0.062514 -0.323417 1.708843
-0.020891 -0.335745 1.701573
-0.087816 -0.363600 1.737070
-0.075169 -0.353682 1.720661
-0.010215 -0.353112 1.703788
-0.011316 -0.332417 1.712252
-0.009444 -0.365805 1.761129
-0.018332 -0.352207 1.775952
-0.101647 -0.329978 1.653151
-0.009629 -0.363911 1.730942
-0.086990 -0.356591 1.672870
0.001009 -0.339094 1.756123
-0.089246 -0.306144 1.751230
-0.088310 -0.359851 1.672210
-0.048581 -0.358920 1.772371
-0.069051 -0.362193 1.675345
-0.017829 -0.367627 1.740438
-0.097128 -0.306158 1.675931
-0.098482 -0.321392 1.654932
-0.032912 -0.292663 1.722724
0.004585 -0.361824 1.738752
-0.000120 -0.362452 1.748115
-0.006562 -0.363489 1.754899
-0.093289 -0.309300 1.740326
-0.000383 -0.381878 1.735260
-0.087264 -0.319968 1.696800
-0.043347 -0.369887 1.752037
-0.050146 -0.391046 1.756242
-0.084167 -0.290574 1.707112
-0.065932 -0.357243 1.669006
-0.011398 -0.350408 1.709541
-0.029107 -0.316333 1.785019
-0.063273 -0.392104 1.752416
-0.055757 -0.362657 1.700389
-0.085197 -0.326742 1.676587
-0.048709 -0.355129 1.773219
-0.037999 -0.322803 1.698657
-0.091428 -0.300378 1.727064
0.001002 -0.347270 1.728961
-0.016972 -0.364787 1.686718
0.004788 -0.315116 1.733179
-0.068658 -0.358079 1.762461
-0.023254 -0.317545 1.706751
-0.015983 -0.362443 1.687089
-0.092387 -0.320286 1.743054
-0.087753 -0.377615 1.720171
-0.007635 -0.301749 1.726009
0.003647 -0.336529 1.711174
-0.068465 -0.334580 1.771614
-0.045682 -0.352438 1.775772
-0.070905 -0.357121 1.676081
-0.036525 -0.363573 1.681406
-0.084424 -0.329001 1.674707
-0.065622 -0.328561 1.776816
-0.071992 -0.386959 1.750066
-0.045510 -0.392545 1.759089
-0.081617 -0.382554 1.730472
-0.024206 -0.392844 1.757639
-0.066192 -0.374930 1.712383
-0.078593 -0.375120 1.729130
-0.011560 -0.352238 1.703384
-0.081901 -0.333929 1.758821
-0.000570 -0.377877 1.742348
-0.018225 -0.368534 1.762674
-0.081188 -0.318744 1.767829
-0.091648 -0.364748 1.720085
-0.059590 -0.330702 1.779253
-0.043440 -0.352012 1.774141
0.008896 -0.321886 1.747123
-0.015284 -0.327049 1.709131
-0.100182 -0.330488 1.656633
-0.083693 -0.358525 1.676602
-0.085867 -0.373878 1.704466
-0.020814 -0.391485 1.754691
-0.052714 -0.389936 1.758418
-0.089956 -0.323432 1.734288
0.016080 -0.387888 1.747676
-0.064348 -0.350162 1.675434
-0.090011 -0.365531 1.713072
-0.088815 -0.374399 1.726725
-0.089980 -0.339463 1.728360
-0.045665 -0.344619 1.777305
-0.050564 -0.355388 1.773512
-0.031903 -0.383638 1.751729
-0.075295 -0.338018 1.766334
-0.081738 -0.319344 1.702873
-0.084228 -0.352926 1.659519
0.004478 -0.324558 1.756103
-0.047133 -0.391553 1.754122
-0.010921 -0.324731 1.768141
-0.092449 -0.310950 1.687038
-0.047116 -0.371786 1.756051
-0.066499 -0.365336 1.684623
-0.089893 -0.362631 1.712176
0.025244 -0.380109 1.717938
-0.089614 -0.339635 1.719324
-0.020497 -0.339501 1.775122
-0.059715 -0.359572 1.686983
-0.081690 -0.307268 1.698486
-0.008185 -0.359318 1.718746
-0.093992 -0.349013 1.658462
-0.035528 -0.351094 1.683405
-0.030011 -0.384149 1.749989
-0.000545 -0.362441 1.701957
-0.080335 -0.354347 1.754549
-0.081027 -0.325238 1.764355
-0.025691 -0.373376 1.766070
-0.014928 -0.324177 1.719081
0.004656 -0.309700 1.765327
-0.089107 -0.312971 1.730226
-0.098080 -0.326929 1.662183
-0.077035 -0.388763 1.744089
-0.032991 -0.366754 1.748993
0.000292 -0.383194 1.740564
-0.007927 -0.353051 1.759399
-0.089706 -0.316080 1.750056
-0.040594 -0.353308 1.674737
-0.070745 -0.339813 1.767679
0.014174 -0.305875 1.756328
-0.096910 -0.346667 1.662195
-0.075036 -0.332514 1.769394
-0.021581 -0.336317 1.671857
-0.094152 -0.319065 1.694929
-0.095780 -0.354038 1.677292
-0.092094 -0.330321 1.732331
-0.081856 -0.378333 1.719539
-0.067862 -0.329082 1.773387
-0.084504 -0.348190 1.686217
-0.061087 -0.369588 1.741511
0.003786 -0.351528 1.741275
-0.042076 -0.387230 1.761132
-0.016699 -0.356907 1.696492
-0.086225 -0.354150 1.752579
-0.103322 -0.323787 1.658646
-0.032893 -0.331099 1.698970
-0.091919 -0.306778 1.749748
-0.000726 -0.353665 1.708710
-0.042784 -0.342208 1.693702
-0.071788 -0.345001 1.670251
-0.096291 -0.347503 1.660658
-0.039351 -0.352855 1.683790
-0.091797 -0.320051 1.731489
0.004781 -0.333716 1.741228
-0.033416 -0.352853 1.688397
-0.080590 -0.350412 1.726189
-0.073503 -0.360914 1.686066
0.008002 -0.357855 1.720095
-0.051260 -0.353968 1.666209
-0.020853 -0.393016 1.742010
-0.090932 -0.346376 1.737432
-0.031912 -0.299353 1.689422
-0.081837 -0.318032 1.764771
-0.018807 -0.368682 1.740339
-0.020958 -0.336557 1.702299
-0.002577 -0.375072 1.704087
-0.089493 -0.370160 1.728724
-0.042181 -0.396428 1.754820
-0.088725 -0.359990 1.727942
-0.037440 -0.316347 1.703852
-0.091560 -0.343827 1.727975
-0.006982 -0.374691 1.712054
-0.001908 -0.381916 1.744018
-0.085460 -0.355670 1.750424
-0.018078 -0.365166 1.741746
-0.083103 -0.329467 1.759113
-0.092782 -0.310321 1.737526
-0.085158 -0.358485 1.671386
-0.062836 -0.335714 1.703205
-0.087254 -0.307767 1.760823
-0.091509 -0.356469 1.747327
-0.035140 -0.353578 1.684799
-0.091597 -0.310036 1.739845
-0.052352 -0.323826 1.784222
-0.021355 -0.390703 1.756473
-0.020606 -0.350614 1.693345
-0.012348 -0.371920 1.732350
-0.060467 -0.390835 1.755549
-0.051729 -0.334610 1.696812
-0.078691 -0.352941 1.685462
-0.085486 -0.326462 1.714303
-0.024663 -0.347905 1.694602
-0.086530 -0.352296 1.740905
-0.067655 -0.299857 1.702068
-0.055615 -0.341425 1.776842
-0.026168 -0.383881 1.769675
-0.065651 -0.348223 1.671876
-0.073334 -0.337161 1.674042
-0.031231 -0.309757 1.705764
-0.071612 -0.371149 1.754897
-0.077534 -0.376404 1.700043
-0.013441 -0.368810 1.691439
-0.082586 -0.341450 1.756503
-0.042733 -0.356269 1.684059
-0.100175 -0.332905 1.669757
-0.027737 -0.377742 1.745592
-0.037678 -0.382695 1.749254
-0.083625 -0.356720 1.757961
-0.075811 -0.365190 1.735758
-0.073808 -0.346845 1.670208
-0.027657 -0.370740 1.765629
-0.002599 -0.369984 1.706088
-0.088557 -0.353522 1.666678
-0.043986 -0.336442 1.696012
-0.102285 -0.307026 1.671008
-0.090350 -0.320565 1.738434
0.002228 -0.380457 1.735493
-0.066235 -0.344196 1.701440
-0.099229 -0.339816 1.652542
-0.063939 -0.336998 1.775834
-0.058302 -0.367809 1.747420
-0.089877 -0.337531 1.722829
-0.086861 -0.300718 1.703898
-0.016113 -0.346596 1.706808
-0.073445 -0.349679 1.721295
-0.086725 -0.370012 1.739085
-0.086152 -0.343498 1.695865
0.001912 -0.343140 1.731867
-0.057305 -0.389775 1.741332
-0.069725 -0.354094 1.700465
-0.088488 -0.379375 1.726655
-0.002292 -0.313297 1.763278
-0.082776 -0.350240 1.692057
-0.003324 -0.369560 1.691731
-0.077069 -0.352980 1.732738
-0.100688 -0.317995 1.679128
-0.007649 -0.368850 1.702575
-0.066615 -0.353658 1.766701
-0.012410 -0.351264 1.764421
-0.090843 -0.349357 1.654549
-0.041868 -0.354547 1.686566
-0.046625 -0.354878 1.686631
-0.035961 -0.359193 1.675939
-0.074438 -0.356833 1.670735
-0.089136 -0.350890 1.708802
-0.095278 -0.342835 1.661629
-0.046517 -0.352505 1.671418
-0.088524 -0.364832 1.735050
-0.070047 -0.325542 1.675970
-0.042323 -0.377247 1.764589
0.000633 -0.330892 1.740356
-0.088863 -0.309344 1.746297
-0.037819 -0.312919 1.702284
-0.019763 -0.308111 1.705521
0.003241 -0.307598 1.757353
-0.074344 -0.358358 1.674757
-0.079062 -0.358121 1.691898
-0.064852 -0.363574 1.709164
-0.017989 -0.327267 1.690141
-0.055621 -0.359402 1.768765
-0.019447 -0.304016 1.709994
-0.022487 -0.381900 1.741473
-0.017654 -0.356541 1.765983
-0.063166 -0.323316 1.706507
-0.005676 -0.372844 1.718701
-0.031266 -0.359248 1.769736
-0.058569 -0.359150 1.671439
-0.056446 -0.385929 1.761014
-0.103831 -0.323282 1.659781
0.004445 -0.341307 1.706254
-0.045228 -0.316880 1.689308
-0.084604 -0.381078 1.732188
-0.070312 -0.317096 1.680991
-0.089699 -0.338902 1.720706
-0.044021 -0.374279 1.766026
-0.019943 -0.315005 1.699938
-0.054349 -0.338881 1.778010
-0.064642 -0.339596 1.773461
-0.072423 -0.337686 1.768683
-0.034639 -0.316473 1.702538
-0.042548 -0.312671 1.686005
-0.083190 -0.310547 1.767327
-0.089364 -0.378323 1.730753
-0.024350 -0.387945 1.758540
-0.093298 -0.355638 1.721610
-0.084909 -0.380439 1.717212
-0.087721 -0.379053 1.714670
0.007161 -0.368334 1.729495
-0.036710 -0.386546 1.763384
-0.079111 -0.331577 1.696674
-0.088423 -0.312051 1.759651
-0.010382 -0.328953 1.721071
-0.109564 -0.344851 1.655260
-0.060518 -0.389919 1.739691
-0.053388 -0.395678 1.753646
-0.083052 -0.338555 1.701407
-0.091676 -0.323646 1.677287
-0.046706 -0.319922 1.699404
-0.051754 -0.369743 1.767188
-0.021470 -0.361517 1.687851
-0.007994 -0.362837 1.700009
-0.041571 -0.378681 1.771713
-0.033620 -0.342693 1.679764
-0.061837 -0.349752 1.703719
-0.006254 -0.333174 1.709133
-0.065028 -0.305118 1.695730
-0.024346 -0.370083 1.766582
0.005677 -0.365688 1.715614
-0.089181 -0.365857 1.719986
-0.021815 -0.364562 1.680244
-0.100390 -0.332775 1.654501
-0.003592 -0.360023 1.751488
-0.074628 -0.386611 1.732844
-0.021193 -0.369049 1.746708
-0.081044 -0.356735 1.691429
-0.080964 -0.356905 1.672484
-0.000929 -0.340422 1.755449
0.014419 -0.382638 1.739819
-0.024526 -0.380587 1.749112
-0.029760 -0.348050 1.670851
-0.089403 -0.360445 1.709501
-0.085823 -0.311410 1.712836
-0.056832 -0.388470 1.745989
-0.082029 -0.378168 1.731034
-0.016330 -0.373865 1.743132
-0.078643 -0.360975 1.679451
-0.070661 -0.377416 1.738739
-0.028697 -0.339120 1.690431
-0.065045 -0.356522 1.673453
-0.070559 -0.376050 1.756240
-0.078326 -0.307238 1.696881
-0.073902 -0.307118 1.696866
-0.076183 -0.382482 1.744904
-0.072530 -0.366963 1.696041
-0.049127 -0.298876 1.697958
0.002533 -0.331235 1.744023
-0.089300 -0.366375 1.701896
-0.054703 -0.316558 1.689950
-0.011465 -0.371714 1.745496
-0.092958 -0.343821 1.671764
-0.085338 -0.358590 1.743267
-0.091815 -0.330980 1.671122
-0.015774 -0.362540 1.742164
-0.014202 -0.396646 1.764216
-0.079831 -0.374218 1.718236
-0.031744 -0.305705 1.708048
-0.066435 -0.330432 1.773859
-0.052576 -0.331280 1.683145
-0.017158 -0.363509 1.686357
-0.077131 -0.311978 1.676640
-0.035201 -0.370873 1.766692
-0.065149 -0.367247 1.698212
-0.058446 -0.368256 1.682088
-0.058228 -0.356478 1.689013
0.001967 -0.323895 1.718942
-0.041339 -0.362972 1.680858
-0.084381 -0.379322 1.714705
-0.096877 -0.332873 1.670109
-0.022335 -0.302411 1.703060
-0.029222 -0.383804 1.750701
-0.024788 -0.309698 1.708900
-0.020248 -0.377062 1.761566
-0.024797 -0.391659 1.754936
-0.083996 -0.377949 1.742367
-0.035869 -0.374422 1.712517
-0.026624 -0.363621 1.767764
-0.038971 -0.327301 1.786122
-0.070276 -0.302422 1.695180
-0.092798 -0.315724 1.734550
-0.082981 -0.306893 1.697776
-0.104717 -0.335373 1.664461
0.010734 -0.373199 1.704693
-0.027605 -0.388654 1.759888
-0.010734 -0.365188 1.689894
-0.090527 -0.295342 1.725702
-0.082563 -0.359723 1.691500
-0.003313 -0.383684 1.740736
0.000543 -0.322701 1.774986
-0.022614 -0.355480 1.689406
-0.086172 -0.364682 1.744251
-0.075759 -0.320132 1.771935
-0.099184 -0.345748 1.666862
-0.062741 -0.348754 1.673372
-0.086936 -0.341680 1.746129
-0.010822 -0.383123 1.736310
-0.008739 -0.337664 1.727341
-0.080873 -0.325167 1.770380
-0.009128 -0.371138 1.754546
-0.097279 -0.335363 1.669691
-0.055917 -0.376475 1.763217
-0.017577 -0.379880 1.761250
-0.067124 -0.298631 1.697079
-0.044064 -0.361514 1.688695
-0.010298 -0.387912 1.749143
-0.093784 -0.302571 1.693727
-0.082924 -0.363236 1.751696
-0.079183 -0.364579 1.752191
0.004167 -0.365521 1.735853
-0.101495 -0.335419 1.663142
-0.059017 -0.384016 1.757709
0.014835 -0.342726 1.741900
-0.091924 -0.334086 1.732280
-0.035343 -0.347999 1.775836
-0.009922 -0.295437 1.715953
-0.059292 -0.341683 1.775266
-0.094398 -0.344835 1.658446
-0.064958 -0.347919 1.699507
0.007571 -0.346052 1.713534
-0.071007 -0.314108 1.672731
-0.030549 -0.351137 1.688437
-0.076389 -0.347422 1.671796
-0.099884 -0.333590 1.671078
-0.069536 -0.333645 1.771952
-0.086824 -0.376467 1.731851
-0.089619 -0.364697 1.733890
-0.088458 -0.365234 1.715951
-0.062190 -0.382723 1.759538
-0.055607 -0.344635 1.677893
-0.090594 -0.331422 1.737013
-0.009361 -0.364852 1.701655
-0.031786 -0.363334 1.769804
-0.016569 -0.316140 1.779776
0.009811 -0.370092 1.700814
-0.090078 -0.345966 1.717710
-0.050662 -0.345419 1.691296
0.009548 -0.375756 1.712349
-0.044422 -0.385471 1.762268
-0.027713 -0.381453 1.750897
-0.078573 -0.371612 1.738476
-0.000202 -0.372599 1.713100
-0.066086 -0.359324 1.764836
-0.078066 -0.358944 1.683195
-0.047712 -0.389917 1.758588
-0.081212 -0.312535 1.769276
-0.090042 -0.300755 1.739922
0.000485 -0.327236 1.727858
-0.017808 -0.343634 1.773504
-0.041019 -0.356544 1.685947
-0.087284 -0.353949 1.681786
-0.010811 -0.385172 1.750320
-0.089363 -0.353806 1.707801
-0.008260 -0.358800 1.725307
-0.079677 -0.349369 1.757372
-0.091341 -0.352871 1.665645
-0.104049 -0.316862 1.663855
-0.057046 -0.387952 1.754734
-0.090536 -0.335755 1.717990
-0.060035 -0.379764 1.753090
-0.080538 -0.379870 1.722596
-0.100694 -0.374876 1.709065
-0.042267 -0.392062 1.761465
-0.018381 -0.387345 1.754281
-0.049918 -0.339706 1.778877
-0.007385 -0.384758 1.749029
-0.059486 -0.377778 1.737774
-0.085948 -0.299898 1.715772
-0.084151 -0.312789 1.687279
-0.090467 -0.358762 1.731063
-0.064320 -0.326932 1.707499
-0.006182 -0.311391 1.710248
0.005665 -0.341446 1.737914
-0.031650 -0.315620 1.703184
-0.002920 -0.329590 1.715094
0.003264 -0.364888 1.711732
0.007233 -0.337379 1.722340
-0.081569 -0.308056 1.709045
-0.075355 -0.370640 1.710104
-0.038704 -0.387295 1.746839
0.012157 -0.369024 1.707454
-0.043325 -0.376998 1.764304
0.001404 -0.372475 1.711759
-0.112332 -0.322514 1.654365
0.018249 -0.368885 1.734091
-0.081422 -0.328296 1.677387
-0.010303 -0.387406 1.742848
-0.096928 -0.306096 1.686049
0.014027 -0.360388 1.734004
-0.004625 -0.313011 1.714781
-0.001731 -0.326812 1.759627
0.017330 -0.334655 1.720292
-0.085372 -0.352431 1.658449
-0.088649 -0.344117 1.706651
-0.058132 -0.384651 1.746446
-0.008956 -0.291786 1.713174
-0.085763 -0.328431 1.748631
-0.087265 -0.377452 1.717352
-0.097376 -0.347770 1.648008
-0.043185 -0.361714 1.771463
-0.028820 -0.383029 1.761670
-0.026256 -0.386103 1.758311
-0.092258 -0.305252 1.727923
-0.025007 -0.344635 1.694160
-0.005655 -0.316121 1.717704
-0.057428 -0.361470 1.772219
-0.075061 -0.380100 1.748977
-0.076841 -0.374584 1.736531
-0.002679 -0.368291 1.701874
-0.048903 -0.288912 1.698492
-0.098384 -0.340748 1.656583
-0.079204 -0.387756 1.737071
-0.088895 -0.376227 1.724924
-0.089295 -0.361142 1.719062
-0.089761 -0.316500 1.717477
-0.079382 -0.357090 1.679590
-0.072235 -0.369740 1.699970
-0.085246 -0.365739 1.738917
-0.057750 -0.364814 1.701923
-0.072944 -0.372611 1.695527
-0.024895 -0.305003 1.716620
-0.049068 -0.370499 1.746724
-0.013707 -0.385512 1.745045
-0.080841 -0.318528 1.706970
-0.045895 -0.334502 1.781168
-0.080674 -0.343128 1.695110
-0.094065 -0.321611 1.733740
-0.029547 -0.305877 1.701591
-0.065692 -0.326040 1.777354
0.004403 -0.376582 1.720355
-0.067138 -0.378702 1.716691
-0.011954 -0.375623 1.734441
-0.067726 -0.331995 1.707044
-0.091458 -0.307015 1.735102
-0.011545 -0.322493 1.771388
-0.053106 -0.351000 1.675490
-0.081268 -0.356748 1.758072
-0.003447 -0.312156 1.765339
-0.090173 -0.359107 1.706739
-0.051919 -0.350455 1.688160
-0.084703 -0.359949 1.741095
-0.068583 -0.350599 1.707638
-0.046575 -0.284966 1.697388
-0.073844 -0.352106 1.729876
-0.077764 -0.307536 1.690323
-0.076176 -0.327858 1.695313
-0.092632 -0.330686 1.728162
-0.055988 -0.320353 1.701893
-0.086713 -0.338655 1.702500
-0.053647 -0.311711 1.707001
-0.089847 -0.335132 1.712626
-0.089498 -0.373983 1.707896
0.005143 -0.353400 1.704143
-0.014038 -0.297610 1.719079
-0.084762 -0.358499 1.673562
-0.079506 -0.307371 1.701417
-0.080565 -0.337897 1.685731
0.005354 -0.319137 1.753582
-0.049668 -0.360352 1.684111
-0.073601 -0.313465 1.699661
-0.086642 -0.317679 1.754401
0.010591 -0.341156 1.744626
-0.079028 -0.358505 1.687942
-0.077611 -0.321713 1.770006
-0.052811 -0.335731 1.681744
-0.016349 -0.377835 1.751256
0.005787 -0.362660 1.698736
0.003298 -0.370714 1.742615
-0.019330 -0.371033 1.743941
-0.089708 -0.358818 1.729589
-0.086649 -0.322468 1.758259
0.003244 -0.309541 1.748049
0.013450 -0.335398 1.727978
-0.012204 -0.332189 1.711643
-0.008682 -0.313518 1.713180
-0.039597 -0.346577 1.690023
-0.089416 -0.371744 1.704089
-0.088985 -0.338504 1.665446
-0.057262 -0.358968 1.664173
-0.019220 -0.389197 1.768302
0.005277 -0.339642 1.738405
-0.001132 -0.363386 1.748967
-0.017451 -0.359380 1.745396
-0.006487 -0.314891 1.770230
-0.052523 -0.380840 1.762661
-0.085113 -0.300630 1.719899
-0.001848 -0.374290 1.706548
-0.072468 -0.325893 1.684369
-0.026473 -0.388003 1.754458
-0.091216 -0.302550 1.732441
-0.072744 -0.348559 1.724729
-0.102256 -0.305610 1.679242
