ply
format ascii 1.0
element vertex 100
property float x
property float y
property float z
end_header
-1.643516626931446 1.623280778956608 1.417934407597762
-1.029561708341707 1.506598436624242 1.414575501599691
-2.137990535097482 0.937321113695840 0.773215542694925
-0.185031915706251 0.447751235141918 1.892731690869353
-0.440464257552615 1.307507119134457 1.245391456558695
-0.278657900665555 0.077941768743943 2.399473355449651
-2.296027247549693 1.500687115159043 0.992806679069529
-1.571305412208730 1.102389705210195 0.361272769086972
-0.409310628095150 1.194199777335378 0.790046642727961
-1.123754424448048 1.547035553336298 1.507404807733349
-0.963881503170594 -1.930615855800160 0.200090178059708
0.544076678526292 -2.484878252397439 2.255058529663681
-2.403774609590729 1.621914032320379 -0.901558102544239
0.279627968999863 -1.118959800611826 -3.645852070318147
-0.369447361165334 -0.645769832229220 0.452483370089494
2.550554300610796 0.573416722216346 -3.767053624747291
0.270570001364307 0.713998129193326 -0.508982818681314
0.709301950046303 1.510018420017740 1.874676283741570
-0.379725217651700 1.050872539988726 3.162387499846066
0.210538621796445 -1.430822717584686 1.244624986251152
0.870074785053753 2.839784112946100 3.372620221641232
0.201699117250598 0.270975478999323 -0.277776171739953
-0.705732217869545 -1.528222949426995 -0.273147357541527
0.539617525080709 0.616621173240500 -1.478554852270917
1.236165083083216 -0.595091837449113 -2.136411961396296
0.794344677262258 -1.599434924445979 2.582133975675590
-0.175223243016915 -0.036251491646198 0.377198508850630
-4.309720518503909 -0.635600510802117 0.527601237507538
-0.093700759363243 -1.422656767336359 1.854932071628867
2.422130314713110 -0.269525845467080 -0.018884617278574
-2.522402295714754 -2.538045498826707 -2.631876332682110
-0.854064857704219 4.012071597353694 1.489603214669283
2.890917435027095 -3.826079604302783 -1.020440013359172
0.008891198247540 0.069886570313356 -0.001477528560089
1.585346190431322 -3.255129259643094 0.176478214847314
0.795578899154945 0.773531900647326 -0.509129317551215
-0.174552619869988 -4.740133004231183 0.666019530598663
-0.765044397834140 -0.897305670564799 0.366129140231079
-3.755191553732137 1.764173509970198 -1.462994203662242
-2.605579067482462 -1.238712389815532 0.487327496378944
0.588675238892370 0.241013100944731 -0.289286911062571
2.756753626830652 -2.219446544671467 2.419012914619624
-3.182607831321771 2.553181514755813 -0.894310134862594
3.412925772109533 -3.231051806359160 0.389198612005871
-1.353374238655613 3.066357629700578 2.086466158471898
2.361080664953210 -2.049167470753887 -0.949397856821777
-0.064438137778463 2.796910773810902 0.483970177962867
-1.072965349396466 -1.674758509615062 1.017204290225335
0.064795246715019 -0.082993679227382 0.089429735047686
0.527742876035326 0.285146750068925 0.037106047139392
-0.053395487676647 0.034155847295976 0.162225695791035
1.334975049113061 2.853248228556608 -0.510580042686131
-1.009426431166506 -2.636771990558813 2.258311092332887
-0.411450341177628 0.091352169231286 -0.185147419660919
-1.677110971932452 -0.027619417560561 -0.269089614063311
-1.424695879162266 -3.060407542816058 -0.878646876173772
-1.940854512983081 0.823444953835766 -0.498639997085524
-1.149800194881341 -0.615012569817081 0.329979892611728
0.256762144867933 3.141919648582148 1.263288419029911
4.195556686455353 2.089299734776728 0.706995432475822
-1.509095958265798 -1.137927235077468 3.366798467936293
-0.150847906798537 1.641489731077638 -0.946357111924030
-0.787018226803969 -1.127209483834642 -1.920203323423177
-1.548978685628944 3.886309926341573 0.634827827862709
-0.546266196282837 -0.318590009874178 4.915504880900643
0.053150279546652 2.730824191147884 0.767591037602281
2.506701000545377 1.756159724912425 1.037513384171284
-0.021007613620310 -0.004495697213241 0.071094265984440
-0.279278860756347 -0.082779615609462 0.065010282696488
0.889164504019064 1.226406101047178 -1.580014888667962
-0.746734759974500 0.999639792423880 0.229834688291562
-2.012692956856281 0.214567706606097 3.662992656830103
1.224417632841701 -4.160218481669160 0.575762793746668
-0.494524949956134 0.403900265485452 0.882575750351212
-2.201853223243066 -0.077348256448512 0.808774458360269
-0.097382551816003 0.003993072736221 -0.654206295491963
3.420459692091384 0.632844349699253 -2.568472519934781
-1.467088296859632 -0.137699699080868 0.837676155600773
-0.685649403813178 0.058136855051073 3.830487940378309
-3.212404797723122 -1.813185768757140 -2.254834383110032
-0.779059406099722 -2.168929095375939 0.659187056778126
1.701212440843763 2.057664027712002 2.331457374555449
0.458536041895440 1.379686280727565 -0.840903288689418
-1.609230397304243 0.872830417758082 0.020440924482065
-0.336164923690767 0.035829630037245 -0.050733343354634
-0.507064878573038 -0.333819336803367 -0.109653986741062
-0.146912985883945 0.497017102562241 -0.304072499280749
0.051973162377111 0.188169630957306 -0.076323303727898
-1.781476328280278 -1.213088908907672 0.751756069282415
2.217630562618769 1.943054903911906 1.089970313159570
2.115018528778288 0.800798427657471 0.591373463870706
-1.386240570751876 -0.563475276115975 0.363617287963358
2.899701872101718 1.998104406498589 0.619483256882767
3.315683364860478 -3.069494112282048 -1.218895249468784
-0.115253056846166 -3.366054883868707 -0.619582441689817
1.893561609445024 2.723422709503197 -1.857536887294659
1.858623996799708 -1.627804232093261 0.193261528272517
0.086620259577980 0.146622290094821 -0.414434926067694
0.501582723588043 -0.114133238140831 0.734656507440242
-1.423330678224680 3.404824049239778 3.372081296783670
