ply
format ascii 1.0
element vertex 100
property float x
property float y
property float z
end_header
0.715500093026170 0.168410173083478 0.704799519366047
0.472634242444072 0.142232073507693 0.667495082660055
0.899352044636271 0.228760187283135 0.329031258452140
0.039581258805340 0.494096715893402 0.512881516334860
0.234929377161576 0.090411708109547 0.572615453696837
0.014300011445701 0.736388999366980 0.562167286267128
0.980800157791288 0.149365537892999 0.545916402543655
0.726542089445950 0.015028810711265 0.256842602058984
0.245803345769587 0.000000000000000 0.405647773861514
0.508152440944597 0.160713222252805 0.709758728000304
0.268708573282236 0.751612761556443 0.490959480284247
0.145636522106857 0.910430517470606 0.154818699021791
0.498263700042301 0.033640203635429 0.326807538948377
0.153620910100872 0.396453703146693 0.651008019808578
0.239738783621934 0.836673246415224 0.410549562309421
0.405964570013587 0.311827868327635 0.659757658343902
0.335163673392648 0.014439707817635 0.188027684065179
0.418777268853725 0.977911934673079 0.268022937354913
0.102447693110626 0.388721004926981 0.624987817103788
0.243076413261839 0.004285765030200 0.567313427098919
0.991107271353277 0.236302634982279 0.406041664461783
0.976468514431274 0.094268931831061 0.489001845666354
0.657444422677027 0.656173768912839 0.405355107825513
0.090919185284323 0.667591615693747 0.712764374504027
0.747517360171461 0.010533865635922 0.498930393875643
0.576631636404105 0.653069628548177 0.487033413929199
0.440394283142801 0.027929244001295 0.485722915149801
0.652958791531107 0.402813822293595 0.162556802085838
0.459677799883451 0.996152153054935 0.290069133992351
0.498947287156539 0.867174869515117 0.268072875602681
0.323320000294627 0.650478319925004 0.484568314705935
0.046736317429172 0.313362391619987 0.402063563910613
0.377470507209949 0.325129818704678 0.213144297352514
0.488044987108692 0.438459600259221 0.674422735600873
0.652853723871128 0.148860122100713 0.725846988756340
0.260695828709573 0.870704157448998 0.386273502871317
0.818745402897082 0.231955480975966 0.649114489158372
0.358060806208200 0.056019074726347 0.188073574964399
0.577047322353388 0.035951440766840 0.326293264867614
0.326256112847519 0.228211608152607 0.641397980332852
0.496273674066619 0.033536958539238 0.566108888407285
0.842595397199371 0.026975728905477 0.508017445530293
0.140357472382062 0.654635173133127 0.705343422677757
0.030610273040418 0.410255010862606 0.386031042182950
0.521177719854047 0.947390099969258 0.190929394155412
0.664952951835622 0.227422048381200 0.739672605702352
0.199672999376130 0.842145965538863 0.168512714292965
0.809973491375339 0.482901548699068 0.270170200307805
0.287755898325476 0.218588069135450 0.618604067474680
0.657310470523374 0.657293954324641 0.486538091369472
0.149977592520942 0.980516717698872 0.000000000000000
0.738199509094329 0.308081984399407 0.716386776593324
0.064641887960895 0.496296613231527 0.575551566249729
0.500278022678677 0.065099389179688 0.175341848234032
0.087952654770294 0.516271158174429 0.648246672268767
0.161670809835982 0.639532781122483 0.307982704950629
0.491781431413443 0.306027841886634 0.742361075829488
0.654915147211997 0.007018077243471 0.245244560281850
0.080332678978466 0.476241121317664 0.324393996283830
1.000000000000000 0.139025366794733 0.400834118942122
0.742266616747692 0.412924601742788 0.688533778605359
0.198716794427550 0.902913007471833 0.010512246258584
0.409825174905162 0.569331847361464 0.572856358921283
0.000000000000000 0.678294213028144 0.481661878519261
0.492950888894526 0.597876464313736 0.313943814606901
0.497468773134776 0.059154286661229 0.715022292217610
0.579163202643276 0.154420575674244 0.729853386181482
0.167477573478293 0.811198983265823 0.574568362218288
0.236563098201572 0.816152133446662 0.480146247043267
0.577402206946261 0.560107110439748 0.258247572489584
0.413466481380223 0.490601164243692 0.636004850684388
0.576836847659485 0.489359508097827 0.216251818887236
0.867099251972058 0.518410320145522 0.506092202270190
0.160201748007102 0.399972181391905 0.252332812515830
0.124584326620123 0.215881373370443 0.488860138189552
0.735357868192639 0.145699268578756 0.182191218917840
0.841647261809076 0.505285145886427 0.316099106267510
0.338757040155404 0.307158183378022 0.232809069298626
0.188867835693436 0.052714527761530 0.462109797577519
0.044531040385525 0.677902751465473 0.683533417737729
0.482973081185362 0.896043374906474 0.290200050634593
0.244507012710107 0.599813208579806 0.302380590082804
0.233626306900787 0.760999492975324 0.348418348664698
0.582108164057589 0.063605364511626 0.181801843876471
0.718547551657051 0.230215121100314 0.717607517248555
0.143182873611939 0.814107443126771 0.155438182168343
0.753890300111900 0.399764333703737 0.206074936934894
0.824125033004116 0.073500830045826 0.324547921222710
0.229464048848329 0.802730019553721 0.558241219912080
0.379291839195373 0.009695084072856 0.486541472539532
0.785248955551541 0.329956772055014 0.200329562268696
0.614524080894280 0.010294317907262 0.456791581585409
0.495097479384227 0.008055958188526 0.675837145654949
0.158471493933414 0.737279717713276 0.315124132054274
0.520511000881895 0.562462214796106 0.621573941450553
0.927126735228416 0.310484349720176 0.405365430449722
0.493361179426528 0.010903657543633 0.709015096836333
0.159103131695015 0.494852489103017 0.638690605819952
0.873186087106130 0.324560977692599 0.270732995435873
0.818383705686467 0.015478921119666 0.399247897685241
